<svg id="visual" viewBox="0 0 900 600" width="900" height="600" xmlns="http://www.w3.org/2000/svg" xmlns:xlink="http://www.w3.org/1999/xlink" version="1.1"><rect x="0" y="0" width="900" height="600" fill="#0f172a"></rect><defs><linearGradient id="grad1_0" x1="33.3%" y1="0%" x2="100%" y2="100%"><stop offset="20%" stop-color="#0f172a" stop-opacity="1"></stop><stop offset="80%" stop-color="#0f172a" stop-opacity="1"></stop></linearGradient></defs><defs><linearGradient id="grad2_0" x1="0%" y1="0%" x2="66.7%" y2="100%"><stop offset="20%" stop-color="#0f172a" stop-opacity="1"></stop><stop offset="80%" stop-color="#0f172a" stop-opacity="1"></stop></linearGradient></defs><g transform="translate(900, 0)"><path d="M0 270.4C-35.2 263.3 -70.3 256.3 -99.9 241.1C-129.4 226 -153.4 202.7 -179.6 179.6C-205.8 156.5 -234.3 133.4 -249.8 103.5C-265.3 73.6 -267.9 36.8 -270.4 0L0 0Z" fill="#715DF2"></path></g><g transform="translate(0, 600)"><path d="M0 -270.4C39.2 -270.4 78.4 -270.3 103.5 -249.8C128.6 -229.3 139.5 -188.4 161.9 -161.9C184.4 -135.4 218.4 -123.3 238.4 -98.7C258.4 -74.1 264.4 -37.1 270.4 0L0 0Z" fill="#715DF2"></path></g></svg>