<svg id="visual" viewBox="0 0 900 600" width="900" height="600" xmlns="http://www.w3.org/2000/svg" xmlns:xlink="http://www.w3.org/1999/xlink" version="1.1"><rect x="0" y="0" width="900" height="600" fill="#f5f5f5"></rect><defs><linearGradient id="grad1_0" x1="33.3%" y1="0%" x2="100%" y2="100%"><stop offset="20%" stop-color="#f5f5f5" stop-opacity="1"></stop><stop offset="80%" stop-color="#f5f5f5" stop-opacity="1"></stop></linearGradient></defs><defs><linearGradient id="grad2_0" x1="0%" y1="0%" x2="66.7%" y2="100%"><stop offset="20%" stop-color="#f5f5f5" stop-opacity="1"></stop><stop offset="80%" stop-color="#f5f5f5" stop-opacity="1"></stop></linearGradient></defs><g transform="translate(900, 0)"><path d="M0 243.4C-31.3 239.8 -62.5 236.2 -93.1 224.8C-123.7 213.5 -153.7 194.5 -168.3 168.3C-182.9 142.1 -182.2 108.8 -192.2 79.6C-202.1 50.4 -222.8 25.2 -243.4 0L0 0Z" fill="#715DF2"></path></g><g transform="translate(0, 600)"><path d="M0 -243.4C32.6 -240.8 65.3 -238.3 93.1 -224.8C121 -211.4 144.1 -187.2 162.6 -162.6C181.2 -138.1 195.2 -113.3 207.9 -86.1C220.6 -59 232 -29.5 243.4 0L0 0Z" fill="#715DF2"></path></g></svg>